 <svg  version="1.0" xmlns="http://www.w3.org/2000/svg"  width="900.000000pt" height="732.000000pt" viewBox="0 0 900.000000 732.000000"  preserveAspectRatio="xMidYMid meet">  <g transform="translate(0.000000,732.000000) scale(0.100000,-0.100000)" fill="#ffffff" stroke="none"> <path d="M4233 6709 c-34 -19 -102 -70 -150 -115 -48 -44 -124 -112 -168 -150 -44 -38 -84 -74 -90 -80 -5 -6 -39 -35 -75 -64 -36 -29 -67 -56 -70 -59 -3 -4 -117 -103 -255 -221 -137 -118 -252 -217 -255 -220 -3 -3 -54 -48 -115 -101 -120 -103 -183 -136 -315 -162 -37 -8 -171 -56 -202 -72 -14 -8 -32 -15 -39 -15 -18 0 -312 -145 -396 -196 -40 -24 -75 -44 -77 -44 -3 0 -35 -21 -73 -47 -37 -25 -99 -68 -138 -94 -190 -130 -531 -443 -664 -609 -323 -405 -411 -574 -411 -787 0 -161 50 -267 235 -497 44 -54 100 -125 125 -156 80 -102 251 -292 375 -415 303 -303 644 -555 965 -715 94 -47 202 -96 285 -130 44 -17 95 -38 113 -46 18 -8 39 -14 48 -14 8 0 32 -9 54 -20 29 -15 44 -32 63 -73 86 -189 263 -360 529 -512 28 -16 170 -86 203 -101 17 -7 60 -27 98 -43 37 -17 74 -31 82 -31 8 0 29 -6 47 -14 63 -27 221 -67 353 -90 138 -25 507 -22 607 3 88 23 149 47 160 64 26 40 -28 147 -183 367 -33 47 -77 110 -98 140 -20 30 -59 87 -86 125 -98 141 -115 170 -113 188 2 12 39 34 113 68 61 28 138 64 173 80 70 33 83 35 120 15 103 -54 291 -99 489 -117 104 -10 171 -10 310 0 208 14 327 36 478 87 23 8 46 14 53 14 12 0 252 116 297 143 63 38 179 129 237 185 69 66 94 113 81 149 -5 11 -46 53 -93 93 -47 40 -143 128 -215 195 -71 67 -173 160 -225 208 -112 102 -140 133 -140 156 0 9 19 41 43 72 80 105 94 124 178 240 46 64 113 162 148 218 42 65 71 101 82 101 10 0 35 -21 56 -46 21 -26 79 -95 129 -153 50 -58 103 -119 117 -136 124 -147 162 -191 167 -195 3 -3 30 -34 60 -70 30 -36 61 -72 70 -81 18 -19 40 -45 144 -169 44 -52 82 -97 86 -100 8 -6 64 -70 125 -144 22 -27 45 -54 51 -60 5 -6 37 -42 69 -81 33 -38 74 -86 91 -105 18 -19 51 -60 75 -90 78 -99 136 -150 173 -150 64 0 81 51 50 159 -8 31 -22 80 -30 109 -8 28 -20 76 -28 105 -8 28 -22 80 -30 115 -41 160 -81 325 -107 432 -8 33 -22 91 -56 225 -8 33 -21 85 -28 115 -7 30 -23 91 -35 135 -68 247 -68 234 -4 445 16 54 36 121 64 215 11 39 27 93 36 120 8 28 19 66 24 85 4 19 13 49 18 65 6 17 18 57 28 90 9 33 23 78 29 100 7 22 20 67 30 100 64 220 105 354 121 400 8 22 17 76 20 120 6 90 -7 128 -45 133 -57 9 1 64 -1172 -1120 -156 -159 -291 -288 -299 -288 -9 0 -33 30 -54 68 -57 98 -140 224 -224 335 -82 110 -112 156 -112 173 0 7 37 40 82 75 45 35 89 71 98 79 9 8 38 33 65 55 101 81 125 111 125 155 0 102 -218 442 -449 702 -154 172 -403 411 -541 519 -30 23 -57 46 -60 49 -8 10 -249 190 -254 190 -3 0 -33 19 -68 43 -74 51 -298 185 -348 209 -19 9 -78 36 -130 61 -52 25 -104 47 -115 50 -11 3 -45 15 -75 26 -79 30 -181 51 -285 58 -88 5 -91 5 -152 -28z m218 -140 c143 -18 359 -96 359 -130 0 -9 -55 -67 -122 -130 -68 -63 -161 -150 -208 -195 -47 -45 -134 -128 -195 -185 -60 -58 -143 -136 -182 -173 l-73 -69 -137 6 c-131 6 -426 -4 -540 -19 -48 -6 -53 -5 -53 13 0 11 24 39 59 69 32 27 170 146 306 264 136 118 289 250 339 294 50 43 107 92 126 110 187 168 176 164 321 145z m593 -235 c118 -59 316 -197 316 -220 0 -6 -22 -31 -48 -55 -46 -42 -72 -66 -297 -264 -55 -49 -124 -111 -153 -138 -28 -28 -68 -62 -87 -75 -38 -27 -52 -27 -195 9 -69 17 -147 35 -233 55 -43 10 -81 22 -84 27 -6 10 58 74 417 418 216 207 286 269 302 269 6 0 34 -12 62 -26z m483 -336 c58 -25 343 -283 343 -310 0 -16 -37 -52 -160 -156 -47 -39 -134 -114 -195 -167 -60 -52 -117 -95 -126 -95 -10 0 -86 34 -170 76 -85 41 -182 89 -216 106 -42 20 -63 36 -63 48 0 10 44 57 98 106 53 48 104 95 113 104 63 60 339 300 345 300 2 0 16 -6 31 -12z m564 -509 c104 -115 209 -247 209 -264 0 -20 -279 -267 -358 -317 l-27 -17 -177 132 c-120 89 -178 138 -178 151 0 22 44 65 204 201 64 55 142 121 173 148 30 26 60 47 67 47 8 0 47 -37 87 -81z m-2103 28 c4 -22 -38 -76 -253 -320 -38 -44 -87 -101 -108 -126 -21 -25 -43 -50 -48 -55 -14 -15 -45 20 -80 92 -40 83 -123 207 -189 287 -35 42 -49 68 -47 85 2 24 5 25 142 41 94 11 212 16 360 15 201 -1 220 -2 223 -19z m484 -58 c56 -11 228 -62 291 -85 103 -38 124 -47 152 -59 17 -7 55 -23 85 -35 73 -30 297 -147 365 -190 17 -11 37 -23 45 -27 32 -15 110 -78 110 -89 0 -14 -58 -62 -149 -124 -36 -25 -102 -72 -145 -105 -109 -83 -220 -155 -238 -155 -11 0 -80 89 -152 198 -36 53 -92 135 -125 182 -33 47 -82 117 -109 155 -27 39 -70 102 -97 140 -94 136 -115 170 -115 187 0 21 10 22 82 7z m-1406 -37 c142 -103 341 -426 418 -677 10 -33 25 -75 32 -93 8 -18 14 -42 14 -54 0 -12 6 -44 14 -72 18 -63 41 -177 57 -276 6 -42 14 -236 16 -440 6 -429 -3 -531 -73 -855 -29 -136 -69 -283 -90 -333 -8 -18 -14 -39 -14 -47 0 -8 -6 -29 -14 -47 -8 -18 -36 -85 -62 -148 -100 -239 -262 -519 -316 -548 -19 -11 -33 -9 -83 7 -101 33 -126 42 -240 88 -117 48 -127 52 -220 103 -33 18 -85 46 -115 63 -69 37 -287 181 -361 239 -267 206 -560 486 -749 718 -25 30 -47 57 -50 60 -3 3 -30 37 -60 75 -30 39 -57 72 -60 75 -17 14 -133 174 -157 216 -36 61 -63 149 -63 200 0 65 53 251 78 276 7 7 12 16 12 20 0 10 166 233 214 288 17 20 49 58 71 85 235 286 542 550 875 750 96 58 388 205 408 205 5 0 39 13 74 28 34 15 110 43 168 61 58 18 123 39 145 46 61 20 89 18 131 -13z m1138 6 c11 -12 51 -69 91 -127 76 -112 137 -199 249 -358 119 -167 216 -313 216 -324 0 -13 -70 -7 -115 9 -16 6 -57 18 -90 27 -33 9 -73 21 -90 27 -16 5 -43 14 -60 18 -16 5 -52 16 -80 24 -27 8 -77 22 -110 31 -33 10 -80 23 -105 31 -106 32 -188 55 -225 63 -56 13 -146 48 -162 63 -15 15 33 82 156 217 41 45 96 109 123 144 62 78 159 177 173 177 6 0 19 -10 29 -22z m2233 -386 c52 -69 93 -151 93 -186 0 -14 -27 -43 -77 -86 -113 -96 -214 -170 -232 -170 -18 0 -171 158 -171 176 0 7 12 22 28 34 15 12 45 38 67 59 22 20 78 69 125 107 47 39 91 78 99 87 21 26 37 21 68 -21z m1583 -122 c0 -16 -22 -103 -35 -140 -7 -19 -21 -62 -30 -95 -10 -33 -24 -78 -30 -100 -26 -85 -43 -142 -60 -200 -9 -33 -23 -80 -31 -105 -8 -25 -14 -55 -14 -66 0 -12 -27 -104 -60 -204 -33 -100 -60 -188 -60 -195 0 -6 -9 -20 -20 -30 -18 -16 -33 -17 -152 -12 -371 18 -579 31 -589 38 -18 11 18 68 90 142 222 230 972 977 981 977 5 0 10 -4 10 -10z m-2268 -102 c65 -51 332 -317 414 -413 73 -84 192 -244 255 -340 120 -183 140 -216 134 -225 -13 -21 -47 -8 -280 105 -243 118 -536 257 -777 369 -276 127 -338 160 -338 177 0 15 88 92 142 124 41 25 139 93 209 146 98 74 139 99 166 99 11 0 45 -19 75 -42z m-2014 -84 c15 -3 45 -12 67 -19 22 -7 67 -21 100 -30 33 -10 78 -23 100 -30 22 -6 67 -20 100 -29 133 -38 250 -73 310 -91 22 -7 65 -20 95 -29 150 -42 203 -60 222 -76 20 -16 20 -16 -11 -41 -17 -13 -69 -51 -117 -84 -47 -33 -133 -94 -190 -135 -58 -41 -160 -114 -227 -162 -67 -49 -178 -128 -246 -178 -76 -55 -128 -87 -134 -81 -10 10 -12 23 -27 266 -14 216 -42 401 -85 560 -38 142 -40 156 -25 166 8 5 21 7 28 4 8 -3 26 -8 40 -11z m1370 -408 c37 -19 301 -146 387 -186 39 -18 113 -52 165 -77 52 -25 128 -60 168 -79 176 -83 223 -105 327 -154 272 -129 275 -130 275 -151 0 -11 -10 -24 -22 -29 -13 -6 -30 -14 -38 -19 -8 -5 -35 -19 -60 -29 -64 -29 -237 -111 -430 -204 -393 -191 -485 -235 -656 -319 -100 -49 -191 -89 -203 -89 -21 0 -21 3 -21 163 0 89 6 250 14 357 8 107 17 303 21 435 5 220 17 364 31 386 7 12 11 11 42 -5z m-224 -41 c7 -18 -10 -511 -24 -720 -5 -77 -10 -212 -10 -300 0 -287 -10 -311 -100 -250 -29 19 -54 35 -56 35 -2 0 -39 26 -83 58 -89 65 -294 212 -445 319 -245 175 -245 175 -236 192 4 9 52 48 105 86 54 39 152 109 219 157 66 48 164 118 216 156 52 38 137 97 188 133 51 35 117 83 145 106 57 46 72 51 81 28z m2516 -661 c129 -4 242 -10 251 -15 22 -11 44 -70 64 -169 16 -82 29 -138 60 -245 7 -27 21 -79 30 -115 9 -36 23 -87 31 -114 8 -26 14 -55 14 -64 0 -8 6 -38 14 -66 8 -28 22 -80 31 -116 9 -36 23 -85 30 -110 21 -67 23 -124 5 -127 -9 -1 -47 37 -90 89 -41 50 -84 101 -95 114 -12 12 -39 44 -60 70 -22 26 -67 79 -100 118 -86 100 -434 522 -529 639 -100 124 -98 132 22 124 48 -4 193 -9 322 -13z m-3512 -191 c143 -104 435 -309 597 -418 159 -108 174 -120 175 -138 0 -9 -10 -21 -22 -26 -61 -22 -96 -34 -128 -41 -19 -4 -71 -18 -115 -30 -44 -12 -96 -26 -115 -30 -19 -3 -51 -12 -70 -18 -19 -6 -64 -18 -100 -28 -36 -9 -83 -22 -105 -29 -51 -16 -187 -56 -308 -90 -31 -9 -62 -13 -67 -10 -14 9 -12 64 4 116 13 42 32 113 61 229 8 30 21 96 29 145 9 50 23 128 31 175 8 47 15 113 15 147 0 34 3 68 6 77 10 27 44 18 112 -31z m2536 29 c7 -11 -209 -297 -354 -468 -125 -147 -312 -340 -443 -456 -60 -53 -83 -67 -98 -63 -23 7 -125 76 -209 140 -30 23 -91 66 -135 95 -93 62 -125 89 -125 106 0 12 102 64 365 189 90 43 226 108 470 225 72 34 211 102 310 151 174 85 208 98 219 81z m-233 -640 c15 -9 96 -83 180 -163 85 -80 202 -190 261 -245 136 -125 137 -131 36 -206 -134 -99 -139 -101 -178 -65 -151 134 -218 194 -231 207 -78 75 -264 247 -275 253 -24 14 -15 46 23 90 51 57 143 147 151 147 4 0 19 -8 33 -18z m-1461 -146 c0 -14 -4 -27 -8 -30 -5 -3 -42 -60 -83 -126 -41 -67 -81 -132 -89 -145 -8 -13 -41 -65 -73 -117 -32 -51 -80 -127 -107 -168 -27 -41 -53 -82 -56 -90 -4 -8 -20 -31 -36 -51 -15 -20 -28 -41 -28 -45 -1 -14 -37 -54 -49 -54 -9 0 -85 85 -374 419 l-118 136 26 23 c14 12 34 22 44 22 9 0 37 6 62 14 24 7 73 21 109 31 36 10 88 24 115 32 90 27 139 40 205 58 36 10 85 23 110 30 25 7 72 21 105 30 33 9 78 23 100 31 39 12 75 19 123 23 17 1 22 -4 22 -23z m254 -21 c20 -14 39 -25 41 -25 5 0 202 -136 292 -202 40 -29 73 -60 73 -69 0 -8 -10 -25 -22 -36 -23 -19 -280 -192 -308 -207 -8 -4 -42 -22 -75 -41 -66 -37 -94 -51 -237 -119 -53 -25 -103 -46 -110 -46 -8 0 -18 -4 -23 -9 -16 -15 -132 -51 -164 -51 -40 0 -44 10 -18 51 39 61 46 74 57 94 6 11 18 32 28 47 21 33 133 212 147 236 6 9 36 55 66 102 58 88 106 163 124 192 39 65 72 108 81 108 6 0 28 -11 48 -25z m963 -227 c49 -46 136 -126 193 -178 117 -107 210 -200 210 -210 0 -15 -38 -39 -85 -53 -119 -37 -170 -49 -219 -50 -46 -1 -59 3 -97 33 -24 19 -48 39 -54 45 -5 6 -32 29 -60 50 -120 95 -235 205 -235 225 0 21 218 219 241 220 10 0 57 -37 106 -82z m-2292 -194 c136 -157 129 -148 230 -269 50 -60 105 -125 124 -146 18 -22 31 -45 28 -53 -12 -30 -111 -38 -391 -33 -191 4 -290 10 -335 21 -76 18 -98 39 -66 66 8 7 15 16 15 21 0 4 12 25 26 46 14 21 30 47 35 58 5 11 18 34 29 50 24 39 120 231 120 242 0 12 35 80 50 98 7 8 18 15 24 14 6 0 56 -52 111 -115z m1825 -71 c14 -10 36 -27 50 -39 14 -12 48 -41 75 -64 100 -85 146 -132 141 -145 -7 -19 -68 -23 -196 -13 -167 14 -361 55 -376 80 -10 15 41 57 154 125 51 31 95 60 98 65 8 13 27 10 54 -9z m-1027 -536 c15 -19 47 -64 70 -100 39 -62 188 -283 307 -455 27 -40 50 -77 50 -82 0 -5 -13 -16 -30 -25 -22 -12 -66 -15 -195 -15 l-166 0 -25 28 c-15 15 -72 103 -128 195 -55 93 -109 181 -118 195 -10 15 -22 36 -28 47 -6 11 -19 34 -30 50 -10 17 -28 50 -40 74 -26 56 -15 71 52 71 27 0 65 7 85 15 19 8 47 15 62 15 14 0 33 5 41 10 30 19 64 11 93 -23z m-1125 -32 c43 -10 159 -18 326 -22 l259 -8 32 -45 c38 -55 220 -353 263 -433 36 -66 42 -103 15 -92 -10 3 -31 9 -48 11 -65 11 -225 62 -320 102 -69 30 -232 111 -269 135 -153 96 -268 188 -337 270 -81 96 -64 114 79 82z"/> <path d="M2380 4521 c-55 -12 -166 -68 -206 -103 -37 -33 -100 -113 -124 -158 -7 -14 -21 -61 -31 -105 -18 -76 -18 -85 -2 -165 22 -118 72 -200 160 -268 66 -51 87 -61 152 -79 174 -46 312 -19 457 88 65 48 102 96 143 183 30 64 33 78 32 165 0 96 -14 153 -53 227 -24 44 -129 146 -175 168 -21 10 -51 25 -66 33 -32 17 -231 27 -287 14z m67 -232 c15 -5 43 -24 61 -42 28 -27 32 -37 32 -83 0 -45 -4 -57 -30 -83 -60 -60 -139 -60 -201 -1 -36 34 -39 41 -39 91 1 62 19 91 72 114 40 17 68 18 105 4z"/> </g> </svg> 